<svg width="720" height="720" viewBox="0 0 720 720" fill="none" xmlns="http://www.w3.org/2000/svg">
  <defs>
    <linearGradient id="bgGlowA" x1="110" y1="70" x2="270" y2="230" gradientUnits="userSpaceOnUse">
      <stop stop-color="#FF8FD8"/>
      <stop offset="1" stop-color="#FF8FD8" stop-opacity="0"/>
    </linearGradient>
    <linearGradient id="bgGlowB" x1="510" y1="430" x2="650" y2="590" gradientUnits="userSpaceOnUse">
      <stop stop-color="#9A8BFF"/>
      <stop offset="1" stop-color="#9A8BFF" stop-opacity="0"/>
    </linearGradient>
    <linearGradient id="phoneFrame" x1="250" y1="110" x2="470" y2="620" gradientUnits="userSpaceOnUse">
      <stop stop-color="#252330"/>
      <stop offset="1" stop-color="#17161F"/>
    </linearGradient>
    <linearGradient id="screenBg" x1="280" y1="160" x2="440" y2="560" gradientUnits="userSpaceOnUse">
      <stop stop-color="#15141B"/>
      <stop offset="1" stop-color="#23212C"/>
    </linearGradient>
    <linearGradient id="barFill" x1="0" y1="0" x2="0" y2="1">
      <stop stop-color="#FFB0E7"/>
      <stop offset="1" stop-color="#8578FF"/>
    </linearGradient>
    <linearGradient id="cardFill" x1="94" y1="110" x2="220" y2="250" gradientUnits="userSpaceOnUse">
      <stop stop-color="#232131"/>
      <stop offset="1" stop-color="#171720"/>
    </linearGradient>
    <filter id="shadow" x="48" y="72" width="624" height="596" filterUnits="userSpaceOnUse" color-interpolation-filters="sRGB">
      <feFlood flood-opacity="0" result="BackgroundImageFix"/>
      <feColorMatrix in="SourceAlpha" type="matrix" values="0 0 0 0 0 0 0 0 0 0 0 0 0 0 0 0 0 0 127 0" result="hardAlpha"/>
      <feOffset dy="28"/>
      <feGaussianBlur stdDeviation="30"/>
      <feColorMatrix type="matrix" values="0 0 0 0 0.0207 0 0 0 0 0.0228 0 0 0 0 0.0417 0 0 0 0.38 0"/>
      <feBlend mode="normal" in2="BackgroundImageFix" result="effect1_dropShadow_1_1"/>
      <feBlend mode="normal" in="SourceGraphic" in2="effect1_dropShadow_1_1" result="shape"/>
    </filter>
  </defs>

  <circle cx="178" cy="156" r="126" fill="url(#bgGlowA)"/>
  <circle cx="566" cy="512" r="148" fill="url(#bgGlowB)"/>

  <circle cx="360" cy="360" r="250" stroke="#E9E7FF" stroke-opacity="0.12" stroke-dasharray="10 12"/>
  <circle cx="360" cy="360" r="176" stroke="#E9E7FF" stroke-opacity="0.08" stroke-dasharray="8 10"/>

  <g filter="url(#shadow)">
    <rect x="248" y="104" width="224" height="482" rx="42" fill="url(#phoneFrame)"/>
    <rect x="264" y="122" width="192" height="446" rx="34" fill="url(#screenBg)"/>
    <rect x="316" y="140" width="88" height="8" rx="4" fill="#C5C2F2" fill-opacity="0.34"/>
    <rect x="412" y="140" width="18" height="8" rx="4" fill="#C5C2F2" fill-opacity="0.22"/>

    <rect x="286" y="176" width="148" height="118" rx="24" fill="#1F1C28"/>
    <rect x="304" y="244" width="18" height="30" rx="9" fill="url(#barFill)"/>
    <rect x="332" y="214" width="18" height="60" rx="9" fill="url(#barFill)"/>
    <rect x="360" y="228" width="18" height="46" rx="9" fill="url(#barFill)"/>
    <rect x="388" y="198" width="18" height="76" rx="9" fill="url(#barFill)"/>
    <path d="M302 230C317 214 333 228 347 210C362 191 384 210 398 194C406 185 415 181 420 184" stroke="#F6D8FF" stroke-opacity="0.56" stroke-width="3" stroke-linecap="round"/>

    <rect x="286" y="312" width="148" height="112" rx="24" fill="#211E2B"/>
    <rect x="302" y="330" width="68" height="24" rx="12" fill="#2C2940"/>
    <text x="316" y="346" fill="#FFB0E7" font-family="Inter, Arial, sans-serif" font-size="11" font-weight="700" letter-spacing="1.8">FOCUS DRIFT</text>
    <text x="302" y="379" fill="#F4F2FF" font-family="Plus Jakarta Sans, Arial, sans-serif" font-size="20" font-weight="800">집중 변동성 감지</text>
    <text x="302" y="405" fill="#B8B4D0" font-family="Inter, Arial, sans-serif" font-size="12">후반부 흔들림과 놓침 패턴을</text>
    <text x="302" y="421" fill="#B8B4D0" font-family="Inter, Arial, sans-serif" font-size="12">짧은 카드 요약으로 정리합니다.</text>

    <rect x="286" y="442" width="148" height="92" rx="24" fill="#1F1C28"/>
    <rect x="302" y="460" width="76" height="26" rx="13" fill="#2B2840"/>
    <rect x="382" y="460" width="52" height="26" rx="13" fill="#2B2840"/>
    <rect x="302" y="494" width="62" height="26" rx="13" fill="#2B2840"/>
    <text x="321" y="476" fill="#EEEAFB" font-family="Space Grotesk, Arial, sans-serif" font-size="10" font-weight="700" letter-spacing="1.6">SELF</text>
    <text x="394" y="476" fill="#EEEAFB" font-family="Space Grotesk, Arial, sans-serif" font-size="10" font-weight="700" letter-spacing="1.6">TEST</text>
    <text x="318" y="510" fill="#EEEAFB" font-family="Space Grotesk, Arial, sans-serif" font-size="10" font-weight="700" letter-spacing="1.6">REPORT</text>
  </g>

  <g filter="url(#shadow)">
    <rect x="86" y="148" width="124" height="108" rx="28" fill="url(#cardFill)"/>
    <rect x="102" y="166" width="74" height="22" rx="11" fill="#2C2940"/>
    <text x="116" y="181" fill="#FFB0E7" font-family="Inter, Arial, sans-serif" font-size="11" font-weight="700" letter-spacing="1.4">ATTENTION</text>
    <text x="100" y="228" fill="#F5F3FF" font-family="Plus Jakarta Sans, Arial, sans-serif" font-size="36" font-weight="800">78</text>
  </g>

  <g filter="url(#shadow)">
    <rect x="506" y="166" width="124" height="108" rx="28" fill="url(#cardFill)"/>
    <rect x="522" y="184" width="58" height="22" rx="11" fill="#2C2940"/>
    <text x="534" y="199" fill="#FFB0E7" font-family="Inter, Arial, sans-serif" font-size="11" font-weight="700" letter-spacing="1.4">IMPULSE</text>
    <text x="520" y="246" fill="#F5F3FF" font-family="Plus Jakarta Sans, Arial, sans-serif" font-size="36" font-weight="800">44</text>
  </g>

  <g filter="url(#shadow)">
    <rect x="112" y="470" width="136" height="112" rx="28" fill="url(#cardFill)"/>
    <rect x="128" y="488" width="62" height="22" rx="11" fill="#2C2940"/>
    <text x="140" y="503" fill="#FFB0E7" font-family="Inter, Arial, sans-serif" font-size="11" font-weight="700" letter-spacing="1.4">ACTIVITY</text>
    <text x="126" y="550" fill="#F5F3FF" font-family="Plus Jakarta Sans, Arial, sans-serif" font-size="36" font-weight="800">51</text>
  </g>
</svg>
